<svg xmlns="http://www.w3.org/2000/svg" xmlns:xlink="http://www.w3.org/1999/xlink" width="100" zoomAndPan="magnify" viewBox="0 0 375 374.999991" height="500" preserveAspectRatio="xMidYMid meet" version="1.0"><defs><clipPath id="60b8c26505"><path d="M 187.570312 225.328125 L 309.820312 225.328125 L 309.820312 259.078125 L 187.570312 259.078125 Z M 187.570312 225.328125 " clip-rule="nonzero"/></clipPath><clipPath id="755cb54f63"><path d="M 187.242188 181.050781 L 275.742188 181.050781 L 275.742188 214.800781 L 187.242188 214.800781 Z M 187.242188 181.050781 " clip-rule="nonzero"/></clipPath><clipPath id="be4154db49"><path d="M 187.570312 136.777344 L 309.820312 136.777344 L 309.820312 170.527344 L 187.570312 170.527344 Z M 187.570312 136.777344 " clip-rule="nonzero"/></clipPath><clipPath id="2391b8df38"><path d="M 57.285156 136.824219 L 91.035156 136.824219 L 91.035156 259.074219 L 57.285156 259.074219 Z M 57.285156 136.824219 " clip-rule="nonzero"/></clipPath><clipPath id="183aa0a9f1"><path d="M 101.558594 136.496094 L 135.308594 136.496094 L 135.308594 224.996094 L 101.558594 224.996094 Z M 101.558594 136.496094 " clip-rule="nonzero"/></clipPath><clipPath id="678afe18ba"><path d="M 145.835938 136.824219 L 179.585938 136.824219 L 179.585938 259.074219 L 145.835938 259.074219 Z M 145.835938 136.824219 " clip-rule="nonzero"/></clipPath></defs><g clip-path="url(#60b8c26505)"><path fill="#2ee6e3" d="M 292.941406 259.078125 L 204.449219 259.078125 C 195.128906 259.078125 187.570312 251.519531 187.570312 242.203125 C 187.570312 232.882812 195.128906 225.328125 204.449219 225.328125 L 292.941406 225.328125 C 302.261719 225.328125 309.820312 232.882812 309.820312 242.203125 C 309.820312 251.519531 302.261719 259.078125 292.941406 259.078125 " fill-opacity="1" fill-rule="nonzero"/></g><g clip-path="url(#755cb54f63)"><path fill="#2ee6e3" d="M 258.808594 214.800781 L 204.175781 214.800781 C 194.824219 214.800781 187.242188 207.246094 187.242188 197.925781 C 187.242188 188.605469 194.824219 181.050781 204.175781 181.050781 L 258.808594 181.050781 C 268.160156 181.050781 275.742188 188.605469 275.742188 197.925781 C 275.742188 207.246094 268.160156 214.800781 258.808594 214.800781 " fill-opacity="1" fill-rule="nonzero"/></g><g clip-path="url(#be4154db49)"><path fill="#2ee6e3" d="M 292.941406 170.527344 L 204.449219 170.527344 C 195.128906 170.527344 187.570312 162.96875 187.570312 153.652344 C 187.570312 144.332031 195.128906 136.777344 204.449219 136.777344 L 292.941406 136.777344 C 302.261719 136.777344 309.820312 144.332031 309.820312 153.652344 C 309.820312 162.96875 302.261719 170.527344 292.941406 170.527344 " fill-opacity="1" fill-rule="nonzero"/></g><g clip-path="url(#2391b8df38)"><path fill="#ffffff" d="M 57.285156 242.195312 L 57.285156 153.703125 C 57.285156 144.382812 64.839844 136.824219 74.160156 136.824219 C 83.480469 136.824219 91.035156 144.382812 91.035156 153.703125 L 91.035156 242.195312 C 91.035156 251.519531 83.480469 259.074219 74.160156 259.074219 C 64.839844 259.074219 57.285156 251.519531 57.285156 242.195312 " fill-opacity="1" fill-rule="nonzero"/></g><g clip-path="url(#183aa0a9f1)"><path fill="#ffffff" d="M 101.558594 208.0625 L 101.558594 153.433594 C 101.558594 144.082031 109.117188 136.496094 118.433594 136.496094 C 127.753906 136.496094 135.308594 144.082031 135.308594 153.433594 L 135.308594 208.0625 C 135.308594 217.414062 127.753906 224.996094 118.433594 224.996094 C 109.117188 224.996094 101.558594 217.414062 101.558594 208.0625 " fill-opacity="1" fill-rule="nonzero"/></g><g clip-path="url(#678afe18ba)"><path fill="#ffffff" d="M 145.835938 242.195312 L 145.835938 153.703125 C 145.835938 144.382812 153.390625 136.824219 162.710938 136.824219 C 172.03125 136.824219 179.585938 144.382812 179.585938 153.703125 L 179.585938 242.195312 C 179.585938 251.519531 172.03125 259.074219 162.710938 259.074219 C 153.390625 259.074219 145.835938 251.519531 145.835938 242.195312 " fill-opacity="1" fill-rule="nonzero"/></g></svg>