<svg xmlns="http://www.w3.org/2000/svg" xmlns:xlink="http://www.w3.org/1999/xlink" width="500" zoomAndPan="magnify" viewBox="0 0 375 374.999991" height="500" preserveAspectRatio="xMidYMid meet" version="1.0"><defs><clipPath id="id1"><path d="M 45.328125 136.824219 L 79.078125 136.824219 L 79.078125 259.074219 L 45.328125 259.074219 Z M 45.328125 136.824219 " clip-rule="nonzero"/></clipPath><clipPath id="id2"><path d="M 89.605469 136.824219 L 123.355469 136.824219 L 123.355469 259.074219 L 89.605469 259.074219 Z M 89.605469 136.824219 " clip-rule="nonzero"/></clipPath><clipPath id="id3"><path d="M 133.878906 136.824219 L 167.628906 136.824219 L 167.628906 259.074219 L 133.878906 259.074219 Z M 133.878906 136.824219 " clip-rule="nonzero"/></clipPath><clipPath id="id4"><path d="M 187.570312 225.328125 L 309.820312 225.328125 L 309.820312 259.078125 L 187.570312 259.078125 Z M 187.570312 225.328125 " clip-rule="nonzero"/></clipPath><clipPath id="id5"><path d="M 187.570312 181.050781 L 309.820312 181.050781 L 309.820312 214.800781 L 187.570312 214.800781 Z M 187.570312 181.050781 " clip-rule="nonzero"/></clipPath><clipPath id="id6"><path d="M 187.570312 136.777344 L 309.820312 136.777344 L 309.820312 170.527344 L 187.570312 170.527344 Z M 187.570312 136.777344 " clip-rule="nonzero"/></clipPath></defs><g clip-path="url(#id1)"><path fill="#fffff9" d="M 45.328125 242.195312 L 45.328125 153.703125 C 45.328125 144.382812 52.882812 136.824219 62.203125 136.824219 C 71.523438 136.824219 79.078125 144.382812 79.078125 153.703125 L 79.078125 242.195312 C 79.078125 251.519531 71.523438 259.074219 62.203125 259.074219 C 52.882812 259.074219 45.328125 251.519531 45.328125 242.195312 " fill-opacity="1" fill-rule="nonzero"/></g><g clip-path="url(#id2)"><path fill="#fffff9" d="M 89.605469 242.195312 L 89.605469 153.703125 C 89.605469 144.382812 97.160156 136.824219 106.480469 136.824219 C 115.796875 136.824219 123.355469 144.382812 123.355469 153.703125 L 123.355469 242.195312 C 123.355469 251.519531 115.796875 259.074219 106.480469 259.074219 C 97.160156 259.074219 89.605469 251.519531 89.605469 242.195312 " fill-opacity="1" fill-rule="nonzero"/></g><g clip-path="url(#id3)"><path fill="#fffff9" d="M 133.878906 242.195312 L 133.878906 153.703125 C 133.878906 144.382812 141.433594 136.824219 150.753906 136.824219 C 160.074219 136.824219 167.628906 144.382812 167.628906 153.703125 L 167.628906 242.195312 C 167.628906 251.519531 160.074219 259.074219 150.753906 259.074219 C 141.433594 259.074219 133.878906 251.519531 133.878906 242.195312 " fill-opacity="1" fill-rule="nonzero"/></g><g clip-path="url(#id4)"><path fill="#2ee6e3" d="M 292.941406 259.078125 L 204.449219 259.078125 C 195.128906 259.078125 187.570312 251.519531 187.570312 242.203125 C 187.570312 232.882812 195.128906 225.328125 204.449219 225.328125 L 292.941406 225.328125 C 302.261719 225.328125 309.820312 232.882812 309.820312 242.203125 C 309.820312 251.519531 302.261719 259.078125 292.941406 259.078125 " fill-opacity="1" fill-rule="nonzero"/></g><g clip-path="url(#id5)"><path fill="#2ee6e3" d="M 292.941406 214.800781 L 204.449219 214.800781 C 195.128906 214.800781 187.570312 207.246094 187.570312 197.925781 C 187.570312 188.605469 195.128906 181.050781 204.449219 181.050781 L 292.941406 181.050781 C 302.261719 181.050781 309.820312 188.605469 309.820312 197.925781 C 309.820312 207.246094 302.261719 214.800781 292.941406 214.800781 " fill-opacity="1" fill-rule="nonzero"/></g><g clip-path="url(#id6)"><path fill="#2ee6e3" d="M 292.941406 170.527344 L 204.449219 170.527344 C 195.128906 170.527344 187.570312 162.96875 187.570312 153.652344 C 187.570312 144.332031 195.128906 136.777344 204.449219 136.777344 L 292.941406 136.777344 C 302.261719 136.777344 309.820312 144.332031 309.820312 153.652344 C 309.820312 162.96875 302.261719 170.527344 292.941406 170.527344 " fill-opacity="1" fill-rule="nonzero"/></g></svg>